# xmcd CD database file
#
# Track frame offsets:
#	150
#	16406
#	36460
#	55908
#	76193
#	101180
#	120679
#	140855
#	160540
#	180460
#	199752
#	222790
#
# Disc length: 3299 seconds
#
# Revision: 20
# Processed by: cddbd v1.5.2PL0 Copyright (c) Steve Scherf et al.
# Submitted via: CDex 1.70beta2
#
DISCID=a50ce10c
DTITLE=Toni Braxton - Secrets
DYEAR=1996
DGENRE=R&B
TTITLE0=Come On Over Here ( 1996 ) - Toni Braxton
TTITLE1=You're Makin Me High ( 1996 ) - Toni Braxton
TTITLE2=There's No Me Without You ( 1996 ) - Toni Braxton
TTITLE3=Un-Break My Heart ( 1996 ) - Toni Braxton
TTITLE4=Talking In His Sleep ( 1996 ) - Toni Braxton
TTITLE5=How Could An Angel Break My Heart ( 1996 ) - Toni Braxton
TTITLE6=Find Me A Man ( 1996 ) - Toni Braxton
TTITLE7=Let It Flow ( 1996 ) - Toni Braxton
TTITLE8=Why Should I Care ( 1996 ) - Toni Braxton
TTITLE9=I Don't Want To ( 1996 ) - Toni Braxton
TTITLE10=I Love Me Some Him ( 1996 ) - Toni Braxton
TTITLE11=In The Late Of Night and 5:19 Toni's Secrets ( 1996 ) - Toni Braxton
EXTD=YEAR: 1996
EXTT0=
EXTT1=
EXTT2=
EXTT3=
EXTT4=
EXTT5=
EXTT6=
EXTT7=
EXTT8=
EXTT9=
EXTT10=
EXTT11=
PLAYORDER=
